<?xml version="1.0" standalone="no"?>
<!DOCTYPE svg PUBLIC "-//W3C//DTD SVG 20010904//EN"
 "http://www.w3.org/TR/2001/REC-SVG-20010904/DTD/svg10.dtd">
<svg version="1.0" xmlns="http://www.w3.org/2000/svg"
 width="127.000000pt" height="36.000000pt" viewBox="0 0 127.000000 36.000000"
 preserveAspectRatio="xMidYMid meet">
<metadata>
Created by potrace 1.16, written by Peter Selinger 2001-2019
</metadata>
<g transform="translate(0.000000,36.000000) scale(0.001016,-0.001189)"
fill="#000000" stroke="none">
<path d="M7035 16066 c-490 -81 -899 -366 -1139 -794 -135 -241 -196 -482
-196 -774 0 -489 222 -944 605 -1243 550 -429 1319 -446 1892 -42 113 79 291
257 370 370 249 353 344 798 263 1221 -121 624 -600 1111 -1228 1247 -124 27
-445 35 -567 15z"/>
<path d="M72825 16074 c-400 -60 -703 -214 -964 -490 -444 -469 -554 -1172
-276 -1762 374 -791 1332 -1126 2121 -742 458 222 780 653 866 1155 27 159 21
459 -11 600 -145 624 -601 1078 -1223 1216 -72 16 -137 21 -288 24 -107 2
-208 1 -225 -1z"/>
<path d="M105525 9123 c-113 -13 -238 -41 -352 -78 -580 -190 -1001 -664
-1135 -1278 -20 -89 -22 -131 -22 -337 0 -206 2 -248 22 -337 33 -154 76 -275
146 -418 236 -478 656 -801 1196 -916 90 -20 135 -23 320 -23 164 0 237 4 307
17 665 126 1186 609 1349 1252 153 604 -25 1228 -473 1655 -263 251 -577 404
-933 455 -94 13 -344 18 -425 8z"/>
</g>
</svg>
