<?xml version="1.0" standalone="no"?>
<!DOCTYPE svg PUBLIC "-//W3C//DTD SVG 20010904//EN"
 "http://www.w3.org/TR/2001/REC-SVG-20010904/DTD/svg10.dtd">
<svg version="1.0" xmlns="http://www.w3.org/2000/svg"
 width="127.000000pt" height="36.000000pt" viewBox="0 0 127.000000 36.000000"
 preserveAspectRatio="xMidYMid meet">
<metadata>
Created by potrace 1.16, written by Peter Selinger 2001-2019
</metadata>
<g transform="translate(0.000000,36.000000) scale(0.001016,-0.001189)"
fill="#000000" stroke="none">
<path d="M12846 30230 c-371 -43 -680 -192 -941 -454 -235 -235 -381 -516
-436 -834 -19 -112 -19 -198 -19 -4063 0 -2747 -3 -3963 -11 -3998 -29 -135
-154 -223 -286 -200 -25 5 -98 41 -179 89 -846 504 -1771 809 -2799 924 -299
34 -458 41 -895 41 -437 0 -554 -6 -875 -41 -1645 -181 -3064 -872 -4275
-2084 -1212 -1211 -1900 -2622 -2084 -4270 -34 -306 -41 -443 -41 -885 0 -460
6 -588 46 -935 183 -1587 855 -2979 2004 -4149 330 -336 587 -564 913 -809
703 -528 1489 -915 2316 -1141 970 -265 2085 -329 3131 -180 1371 195 2571
751 3651 1694 191 166 573 548 739 739 1115 1278 1687 2712 1765 4421 13 298
13 14604 0 14733 -22 204 -68 361 -160 547 -221 442 -638 753 -1127 840 -110
19 -332 27 -437 15z m-5087 -11645 c694 -74 1308 -302 1868 -692 946 -659
1594 -1703 1768 -2853 64 -421 60 -914 -11 -1330 -132 -774 -482 -1475 -1029
-2060 -723 -774 -1716 -1252 -2782 -1341 -205 -17 -655 -6 -848 20 -602 82
-1110 261 -1597 563 -997 618 -1702 1655 -1922 2828 -146 775 -72 1573 214
2285 208 517 522 981 941 1390 742 723 1697 1141 2764 1209 116 7 491 -4 634
-19z"/>
<path d="M7036 16065 c-175 -29 -314 -74 -474 -154 -400 -201 -704 -577 -812
-1006 -43 -170 -53 -266 -47 -460 10 -315 90 -568 264 -829 79 -119 245 -294
362 -381 503 -378 1204 -418 1746 -100 397 233 673 626 761 1085 28 145 26
428 -4 578 -127 633 -603 1117 -1234 1254 -124 26 -433 34 -562 13z"/>
<path d="M39600 30066 c-397 -71 -732 -289 -952 -621 -103 -155 -168 -310
-211 -505 l-21 -95 -4 -7340 c-3 -7465 -3 -7574 34 -7965 89 -961 368 -1893
807 -2695 386 -706 900 -1356 1547 -1953 652 -603 1419 -1088 2215 -1399 146
-58 545 -193 567 -193 7 0 -27 22 -75 48 -131 70 -276 182 -391 303 -203 211
-325 435 -393 719 -21 88 -26 138 -30 310 -6 234 11 368 67 539 146 446 513
824 951 979 304 107 622 116 989 27 72 -18 -91 45 -270 104 -475 157 -828 342
-1213 634 -1000 760 -1591 1911 -1667 3247 -6 104 -10 974 -10 2155 0 1865 1
1982 18 2014 9 19 30 44 45 55 28 21 33 21 1365 26 1331 6 1337 6 1430 28 524
123 923 437 1146 902 147 306 194 633 140 962 -89 536 -472 984 -989 1157
-237 79 -126 74 -1680 80 -1302 6 -1393 7 -1418 23 -14 10 -32 28 -39 40 -11
19 -14 691 -18 3488 l-5 3465 -23 107 c-57 268 -168 509 -330 717 -247 317
-597 535 -1000 622 -124 27 -465 36 -582 15z"/>
<path d="M57963 18485 l2 -9980 23 -97 c75 -325 230 -601 458 -817 704 -666
1845 -538 2381 267 138 207 220 432 252 692 8 59 11 3112 10 9995 l0 9910 -26
-110 c-71 -310 -200 -543 -427 -771 -234 -234 -476 -364 -806 -435 -89 -20
-135 -23 -305 -23 -221 0 -317 15 -505 77 -467 154 -860 558 -1001 1029 -12
40 -30 111 -40 158 -17 82 -18 -252 -16 -9895z"/>
<path d="M105450 26859 c-785 -75 -1503 -510 -1943 -1179 -89 -136 -225 -413
-277 -565 -146 -427 -182 -859 -110 -1315 20 -124 1163 -11767 1180 -12015 15
-225 59 -387 157 -576 70 -136 156 -250 276 -366 190 -184 423 -307 687 -364
148 -32 429 -33 572 -1 345 76 637 260 842 532 160 212 261 478 281 740 27
343 1170 11983 1187 12085 19 111 22 169 23 400 0 353 -28 542 -125 835 -135
411 -350 753 -666 1060 -432 420 -972 669 -1583 730 -118 11 -375 11 -501 -1z"/>
<path d="M26100 21733 c-1029 -56 -1893 -269 -2751 -676 -1261 -599 -2462
-1712 -3194 -2962 -521 -889 -819 -1842 -921 -2945 -22 -235 -30 -918 -15
-1173 81 -1333 464 -2490 1171 -3542 569 -846 1373 -1633 2220 -2175 905 -580
1898 -927 2995 -1049 322 -36 504 -45 890 -45 368 0 555 9 850 40 1663 175
3100 873 4320 2098 1131 1136 1804 2446 2034 3961 125 820 112 1785 -34 2582
-269 1465 -953 2727 -2071 3823 -372 364 -716 644 -1124 915 -1049 695 -2195
1067 -3525 1145 -152 9 -705 11 -845 3z m690 -3133 c815 -57 1518 -312 2144
-778 415 -310 776 -688 1050 -1102 363 -547 557 -1082 643 -1770 26 -207 26
-791 0 -1000 -112 -902 -461 -1653 -1076 -2315 -654 -703 -1441 -1135 -2341
-1284 -417 -69 -925 -73 -1356 -11 -765 111 -1432 417 -2042 938 -161 137
-445 429 -573 590 -506 631 -774 1272 -876 2092 -25 205 -25 772 0 980 64 532
200 982 427 1417 387 741 1054 1407 1805 1804 634 334 1425 492 2195 439z"/>
<path d="M72540 21729 c-1508 -95 -2805 -579 -3954 -1476 -405 -316 -867 -763
-1206 -1168 -919 -1098 -1455 -2364 -1604 -3785 -82 -776 -48 -1605 95 -2339
275 -1412 965 -2666 2056 -3731 1048 -1024 2241 -1663 3604 -1929 745 -146
1590 -178 2384 -90 1230 135 2340 562 3335 1283 602 436 1212 1037 1663 1640
935 1249 1397 2676 1397 4316 0 2026 -706 3736 -2130 5160 -736 736 -1532
1270 -2430 1630 -637 255 -1295 407 -2060 476 -208 19 -931 27 -1150 13z m780
-3129 c927 -65 1717 -391 2410 -996 120 -105 375 -362 476 -479 479 -561 791
-1220 909 -1921 132 -776 56 -1592 -212 -2274 -406 -1034 -1307 -1939 -2338
-2350 -978 -390 -2175 -380 -3149 24 -894 371 -1721 1159 -2155 2051 -315 648
-446 1399 -380 2190 44 527 197 1060 435 1513 197 376 435 694 768 1028 354
354 693 602 1102 807 479 240 975 367 1594 410 110 8 407 6 540 -3z"/>
<path d="M72795 16069 c-149 -20 -358 -85 -502 -157 -109 -55 -267 -169 -367
-263 -502 -475 -636 -1221 -331 -1844 218 -447 623 -757 1118 -857 159 -32
453 -32 605 1 578 123 1019 513 1198 1057 60 184 77 316 71 544 -8 272 -44
425 -158 655 -230 465 -665 782 -1184 860 -109 16 -336 18 -450 4z"/>
<path d="M91745 21729 c-520 -30 -1086 -123 -1554 -255 -1176 -330 -2200 -942
-3121 -1864 -395 -395 -700 -764 -973 -1177 -661 -1000 -1017 -2039 -1134
-3303 -22 -244 -26 -1056 -5 -1295 100 -1170 407 -2155 958 -3075 755 -1262
1943 -2345 3229 -2943 783 -365 1587 -567 2535 -639 357 -27 988 -14 1400 28
1130 115 2187 490 3110 1103 96 64 178 117 183 119 4 2 7 -315 7 -706 0 -556
-3 -743 -15 -868 -117 -1228 -703 -2300 -1652 -3021 -432 -328 -808 -514
-1388 -688 -96 -29 -239 -85 -232 -91 2 -2 37 7 78 21 163 56 257 69 484 69
179 0 225 -3 311 -22 148 -32 243 -66 389 -137 1064 -524 1179 -1996 210
-2690 -44 -31 -97 -66 -118 -77 -73 -37 -28 -30 115 17 877 291 1647 732 2399
1376 171 146 642 614 792 787 1024 1177 1592 2503 1732 4042 34 380 36 662 32
4570 -3 2840 -7 3891 -15 3990 -36 405 -71 674 -128 960 -164 831 -470 1602
-922 2325 -531 850 -1337 1682 -2188 2258 -1069 723 -2237 1110 -3588 1187
-204 11 -724 11 -931 -1z m925 -3144 c1081 -127 2027 -630 2736 -1456 456
-532 760 -1146 893 -1805 64 -319 75 -451 76 -859 0 -395 -6 -466 -60 -762
-153 -830 -562 -1602 -1166 -2203 -666 -663 -1455 -1055 -2353 -1170 -918
-117 -1842 64 -2632 515 -603 345 -1155 883 -1516 1478 -402 663 -595 1409
-575 2222 7 248 22 408 63 635 161 898 619 1728 1290 2341 671 613 1409 955
2284 1059 271 33 709 35 960 5z"/>
<path d="M118710 21729 c-1431 -82 -2722 -548 -3840 -1388 -691 -519 -1325
-1184 -1794 -1884 -295 -440 -550 -937 -733 -1427 -525 -1406 -588 -3155 -168
-4640 320 -1131 917 -2140 1795 -3034 579 -589 1148 -1021 1820 -1382 1195
-641 2656 -916 4150 -778 1531 141 2874 723 4045 1754 212 186 389 365 458
462 149 210 279 465 352 689 238 736 3 1325 -692 1736 -569 335 -1183 306
-1708 -80 -38 -29 -149 -129 -246 -223 -351 -341 -621 -548 -972 -744 -641
-357 -1409 -529 -2193 -490 -960 48 -1760 363 -2473 974 -601 515 -1038 1148
-1269 1842 -311 929 -273 2052 97 2934 205 486 481 896 876 1299 717 731 1509
1122 2510 1238 111 12 231 17 465 17 338 0 479 -11 760 -60 779 -134 1493
-500 2090 -1070 74 -71 160 -149 190 -173 l55 -45 -41 45 c-209 224 -356 515
-411 809 -27 145 -25 429 5 577 135 672 669 1173 1349 1264 125 16 391 6 515
-20 168 -37 367 -115 502 -198 l41 -25 -50 52 c-80 83 -334 304 -511 446 -278
223 -563 418 -879 604 -172 101 -612 318 -797 395 -745 305 -1514 476 -2372
525 -205 12 -713 11 -926 -1z"/>
<path d="M105470 9116 c-296 -43 -573 -161 -808 -343 -321 -250 -534 -594
-624 -1006 -20 -89 -22 -131 -22 -337 0 -207 2 -248 22 -340 148 -684 663
-1194 1344 -1332 98 -20 142 -23 333 -22 189 0 235 3 325 23 730 156 1260 723
1355 1448 117 894 -474 1717 -1361 1893 -139 28 -423 36 -564 16z"/>
</g>
</svg>
